<svg xmlns="http://www.w3.org/2000/svg" fill="none" viewBox="0 0 16 16"><path fill="#253E4D" d="M12.95 3.05a7 7 0 1 1-9.9 9.9 7 7 0 0 1 9.9-9.9"/><path fill="#54A5F7" fill-rule="evenodd" d="m14.914 6.905-.988.155a5.97 5.97 0 0 0-1.683-3.303A5.97 5.97 0 0 0 8.94 2.074l.155-.988A6.97 6.97 0 0 1 12.95 3.05a6.97 6.97 0 0 1 1.964 3.855m-8.01-5.82.156.989c-1.209.19-2.37.75-3.303 1.683A5.97 5.97 0 0 0 2.073 7.06l-.987-.155A6.97 6.97 0 0 1 3.05 3.05a6.97 6.97 0 0 1 3.855-1.964m-5.818 8.01A6.97 6.97 0 0 0 3.05 12.95a6.97 6.97 0 0 0 3.855 1.964l.155-.987a5.97 5.97 0 0 1-3.303-1.684A5.97 5.97 0 0 1 2.073 8.94zm8.01 5.82-.156-.988a5.97 5.97 0 0 0 3.303-1.684 5.97 5.97 0 0 0 1.683-3.303l.988.155a6.97 6.97 0 0 1-1.964 3.855 6.97 6.97 0 0 1-3.855 1.964" clip-rule="evenodd"/><path fill="#54A5F7" d="M8.133 11.5c1.48 0 2.75-.89 3.075-2.16h-.987c-.319.734-1.102 1.266-2.088 1.266-1.354 0-2.33-1.088-2.33-2.606s.976-2.606 2.33-2.606c.986 0 1.77.532 2.088 1.267h.986C10.885 5.39 9.612 4.5 8.134 4.5c-1.914 0-3.34 1.494-3.34 3.5s1.426 3.5 3.34 3.5"/></svg>